<svg width="30" height="30" viewBox="0 0 30 30" fill="none" xmlns="http://www.w3.org/2000/svg">
<path d="M3.33333 30C2.41667 30 1.63222 29.6739 0.98 29.0217C0.327778 28.3694 0.00111111 27.5844 0 26.6667V3.33333C0 2.41667 0.326667 1.63222 0.98 0.98C1.63333 0.327778 2.41778 0.00111111 3.33333 0H26.6667C27.5833 0 28.3683 0.326667 29.0217 0.98C29.675 1.63333 30.0011 2.41778 30 3.33333V26.6667C30 27.5833 29.6739 28.3683 29.0217 29.0217C28.3694 29.675 27.5844 30.0011 26.6667 30H3.33333ZM6.66667 23.3333H18.3333V20H6.66667V23.3333ZM6.66667 16.6667H23.3333V13.3333H6.66667V16.6667ZM6.66667 10H23.3333V6.66667H6.66667V10Z" fill="black"/>
</svg>
