<svg width="30" height="32" viewBox="0 0 30 32" fill="none" xmlns="http://www.w3.org/2000/svg">
<path d="M30 14.302V28.7473C30 29.4103 29.7366 30.0462 29.2677 30.5151C28.7989 30.9839 28.163 31.2473 27.5 31.2473H21.25C20.5869 31.2473 19.9511 30.9839 19.4822 30.5151C19.0134 30.0462 18.75 29.4103 18.75 28.7473V22.4973C18.75 22.1658 18.6183 21.8479 18.3839 21.6134C18.1494 21.379 17.8315 21.2473 17.5 21.2473H12.5C12.1685 21.2473 11.8505 21.379 11.6161 21.6134C11.3817 21.8479 11.25 22.1658 11.25 22.4973V28.7473C11.25 29.4103 10.9866 30.0462 10.5178 30.5151C10.0489 30.9839 9.41303 31.2473 8.74999 31.2473H2.5C1.83696 31.2473 1.20107 30.9839 0.732232 30.5151C0.263392 30.0462 2.88872e-08 29.4103 2.88872e-08 28.7473V14.302C-5.25669e-05 13.956 0.0717174 13.6138 0.210768 13.2969C0.349818 12.9801 0.553121 12.6956 0.807811 12.4614L13.3078 0.667654L13.325 0.650467C13.7852 0.231926 14.3849 0 15.007 0C15.6291 0 16.2288 0.231926 16.689 0.650467C16.6944 0.656581 16.7001 0.662323 16.7062 0.667654L29.2062 12.4614C29.4584 12.6968 29.659 12.9819 29.7956 13.2987C29.9322 13.6154 30.0018 13.9571 30 14.302Z" fill="black"/>
</svg>
